<svg xmlns="http://www.w3.org/2000/svg" height="20" viewBox="0 0 1102 1024" fill="#259b24">
  <path d="M248.123077 913.723077C-3.938462 728.615385 7.876923 362.338462 256 189.046154c11.815385 15.753846 23.630769 31.507692 39.384615 51.2-102.4 78.769231-161.476923 181.169231-161.476923 311.138461 0 129.969231 55.138462 232.369231 157.538462 311.138462-15.753846 15.753846-31.507692 35.446154-43.323077 51.2zM874.338462 913.723077c-11.815385-15.753846-23.630769-31.507692-39.384616-51.2 98.461538-82.707692 153.6-185.107692 153.6-315.076923s-59.076923-228.430769-157.538461-311.138462c11.815385-15.753846 23.630769-35.446154 35.446153-51.2 236.307692 165.415385 259.938462 539.569231 7.876924 728.615385z"  />
  <path d="M334.769231 319.015385c15.753846 15.753846 27.569231 35.446154 39.384615 51.2-126.030769 106.338462-110.276923 283.569231 7.876923 374.153846-11.815385 15.753846-23.630769 31.507692-39.384615 51.2-74.830769-55.138462-118.153846-129.969231-126.030769-220.553846-3.938462-102.4 35.446154-189.046154 118.153846-256zM748.307692 370.215385c11.815385-15.753846 27.569231-31.507692 39.384616-51.2 157.538462 118.153846 145.723077 366.276923-11.815385 472.615384-11.815385-15.753846-23.630769-31.507692-35.446154-51.2 59.076923-47.261538 94.523077-106.338462 94.523077-185.107692 3.938462-70.892308-27.569231-133.907692-86.646154-185.107692z"  />
  <path d="M551.384615 551.384615m-118.153846 0a118.153846 118.153846 0 1 0 236.307693 0 118.153846 118.153846 0 1 0-236.307693 0Z"  />
</svg>
